<?xml version="1.0" standalone="no"?>
<!DOCTYPE svg PUBLIC "-//W3C//DTD SVG 20010904//EN"
 "http://www.w3.org/TR/2001/REC-SVG-20010904/DTD/svg10.dtd">
<svg version="1.0" xmlns="http://www.w3.org/2000/svg"
 width="1024.000000pt" height="1024.000000pt" viewBox="0 0 1024.000000 1024.000000"
 preserveAspectRatio="xMidYMid meet">

<g transform="translate(0.000000,1024.000000) scale(0.100000,-0.100000)"
fill="#000000" stroke="none">
<path d="M4740 7529 c-106 -12 -162 -37 -185 -86 -17 -35 -16 -44 14 -262 33
-241 50 -385 54 -466 1 -38 5 -49 17 -47 8 2 67 11 130 19 136 18 482 13 595
-9 l71 -13 17 175 c9 96 28 252 42 345 33 225 33 249 -3 285 -16 16 -46 33
-68 39 -110 29 -488 40 -684 20z"/>
<path d="M2235 7238 c-3 -13 -18 -87 -34 -166 l-30 -142 113 -113 c179 -178
292 -340 661 -942 98 -159 197 -318 219 -352 l40 -62 71 67 c38 38 80 75 93
84 l23 16 -44 68 c-56 87 -116 195 -279 504 -150 283 -280 505 -376 640 -86
122 -276 314 -369 374 -39 25 -74 46 -77 46 -3 0 -8 -10 -11 -22z"/>
<path d="M2812 6838 c23 -35 74 -118 113 -186 l70 -123 95 -32 c205 -70 382
-190 596 -402 152 -150 306 -335 432 -517 37 -53 71 -96 75 -95 5 1 39 61 77
133 l69 130 -53 80 c-384 570 -871 945 -1369 1053 -53 12 -108 21 -122 21
l-26 0 43 -62z"/>
<path d="M4905 6534 c-94 -7 -240 -26 -285 -36 -88 -21 -139 -70 -154 -147
-14 -77 41 -161 106 -161 l31 0 -7 -52 c-23 -183 -116 -423 -269 -692 l-44
-79 73 -94 c224 -286 440 -680 545 -994 25 -75 29 -97 20 -116 -6 -13 -11 -42
-11 -64 0 -33 7 -48 35 -76 67 -67 63 -124 57 775 l-2 399 -41 18 c-59 27 -91
74 -97 141 -5 65 9 104 54 144 45 39 106 55 156 41 45 -14 93 -53 113 -92 19
-36 19 -122 0 -159 -16 -32 -67 -74 -102 -85 l-23 -6 0 -605 c0 -666 -3 -638
60 -575 39 39 47 75 27 129 -15 44 -15 46 19 143 110 317 315 687 539 974 l78
99 -32 55 c-64 112 -175 338 -208 424 -34 88 -66 210 -78 300 -6 47 -6 47 23
47 79 0 135 108 101 197 -27 72 -89 106 -230 127 -106 15 -363 27 -454 20z"/>
<path d="M2085 6517 c-3 -9 -39 -168 -70 -304 -4 -19 10 -32 94 -87 79 -52
248 -173 316 -227 7 -5 10 46 10 149 0 87 2 177 5 202 l5 44 -104 73 c-154
108 -251 165 -256 150z"/>
<path d="M2522 6348 c-34 -103 -42 -163 -42 -292 0 -207 37 -360 135 -561 74
-153 202 -341 334 -490 31 -36 42 -40 168 -71 162 -40 275 -56 363 -52 l65 3
-110 86 c-136 107 -318 294 -408 419 -81 114 -178 306 -207 410 -11 41 -23
111 -27 155 -5 80 -6 80 -94 220 -49 77 -104 162 -123 188 l-34 48 -20 -63z"/>
<path d="M3110 6324 c0 -4 43 -86 95 -184 89 -165 98 -179 149 -214 30 -21 88
-72 128 -115 l74 -76 64 27 c36 15 91 35 123 44 31 9 57 20 57 24 0 4 -36 50
-80 102 -156 187 -342 321 -524 377 -73 22 -86 25 -86 15z"/>
<path d="M1911 5773 c-6 -21 -22 -87 -36 -148 -15 -60 -28 -117 -31 -126 -4
-13 7 -20 48 -29 73 -18 351 -113 454 -155 l85 -36 32 27 c18 15 54 46 81 71
l49 43 -37 83 c-20 45 -40 88 -44 95 -13 25 -290 130 -478 182 -43 12 -87 24
-96 26 -13 4 -19 -4 -27 -33z"/>
<path d="M2918 5778 c-16 -5 -28 -16 -28 -24 0 -31 140 -304 156 -304 10 0 84
41 84 46 0 3 -31 53 -68 112 -38 59 -79 124 -91 145 -12 20 -23 37 -24 36 -1
0 -14 -5 -29 -11z"/>
<path d="M3765 5759 c-155 -45 -320 -140 -448 -259 -77 -72 -157 -168 -157
-189 0 -13 185 -208 211 -222 13 -6 26 6 63 61 124 180 342 319 545 346 28 4
51 10 51 13 0 18 -177 272 -189 270 -3 0 -37 -9 -76 -20z"/>
<path d="M3961 5439 c-57 -11 -141 -39 -141 -46 0 -4 34 -58 76 -122 66 -100
103 -142 267 -301 359 -347 452 -444 515 -534 34 -49 62 -85 62 -80 0 20 -147
302 -218 419 -40 66 -129 199 -197 295 -68 96 -152 221 -187 277 -70 114 -69
113 -177 92z"/>
<path d="M2517 5271 c-58 -53 -143 -136 -188 -186 -120 -131 -291 -366 -277
-380 5 -5 360 -65 381 -65 6 0 32 34 57 76 62 105 142 208 234 305 52 55 75
87 70 95 -5 6 -45 65 -90 132 l-81 120 -106 -97z"/>
<path d="M3556 5219 c-53 -57 -126 -156 -126 -170 0 -9 91 -76 170 -126 36
-22 169 -93 295 -156 361 -182 608 -347 817 -546 48 -46 88 -80 88 -76 0 13
-107 189 -155 255 -65 88 -240 266 -351 355 -50 41 -160 122 -245 181 -170
118 -258 186 -365 281 l-72 63 -56 -61z"/>
<path d="M1734 5084 c-4 -16 -26 -100 -49 -187 -48 -182 -59 -162 90 -171 50
-4 117 -9 151 -12 l60 -6 54 83 c59 94 128 188 173 236 17 18 29 34 26 37 -8
7 -265 36 -381 42 l-117 7 -7 -29z"/>
<path d="M2681 4903 c-47 -53 -181 -252 -181 -268 0 -6 35 -17 78 -24 506 -83
1498 -356 2037 -562 206 -78 201 -77 207 -45 4 21 -6 36 -61 89 -273 262
-1037 595 -1862 812 -93 25 -171 45 -173 45 -2 0 -23 -21 -45 -47z"/>
<path d="M3723 3490 c-45 -18 -58 -95 -23 -130 45 -45 140 -8 140 54 0 52 -68
96 -117 76z"/>
<path d="M2194 3413 c13 -53 167 -638 177 -670 l11 -33 73 0 c61 0 75 3 79 18
3 9 37 129 75 266 39 137 72 251 75 253 6 6 24 -53 97 -315 l62 -223 76 3 76
3 96 360 96 360 -70 3 c-38 2 -72 1 -74 -2 -5 -5 -87 -353 -113 -480 -6 -32
-15 -54 -20 -50 -4 5 -38 119 -75 254 -37 135 -70 253 -73 263 -4 14 -16 17
-76 17 l-71 0 -30 -112 c-31 -123 -124 -446 -125 -438 0 3 -28 127 -63 275
l-62 270 -74 3 -73 3 6 -28z"/>
<path d="M4010 3320 l0 -70 -45 0 -45 0 0 -50 0 -50 44 0 44 0 4 -172 c3 -192
11 -218 72 -254 36 -21 158 -26 177 -7 8 8 9 28 5 58 -7 44 -9 46 -35 40 -19
-4 -35 0 -54 15 l-27 21 0 150 0 149 60 0 60 0 0 50 0 50 -60 0 -60 0 0 70 0
70 -70 0 -70 0 0 -70z"/>
<path d="M3474 3241 c-17 -10 -40 -32 -52 -47 l-21 -29 -1 43 0 42 -65 0 -65
0 0 -270 0 -270 64 0 64 0 4 173 c2 146 6 176 21 199 22 32 83 58 136 58 l38
0 2 60 2 60 -48 0 c-29 0 -60 -7 -79 -19z"/>
<path d="M3694 3251 c-2 -2 -4 -125 -4 -273 l0 -268 70 0 70 0 -2 271 -3 271
-63 2 c-35 0 -66 -1 -68 -3z"/>
<path d="M4482 3234 c-98 -48 -142 -131 -142 -264 0 -91 30 -162 88 -210 93
-77 270 -79 368 -5 28 22 74 89 74 110 0 3 -28 5 -61 5 -54 0 -66 -4 -96 -30
-43 -38 -117 -44 -176 -13 -29 15 -75 98 -62 111 4 4 97 9 207 11 l201 3 -7
59 c-16 162 -109 249 -266 249 -62 0 -86 -5 -128 -26z m201 -96 c22 -12 57
-67 57 -90 0 -16 -13 -18 -135 -18 l-135 0 15 37 c21 49 42 71 79 83 33 10 89
4 119 -12z"/>
</g>
</svg>
